<svg xmlns="http://www.w3.org/2000/svg" xmlns:svg="http://www.w3.org/2000/svg" xmlns:xlink="http://www.w3.org/1999/xlink" version="1.0" height="880.0000000000059pt" width="1359.9999999999918pt" viewBox="-495 -543 1367.9999999999918 886.0000000000059" ><defs><style type="text/css">
            @font-face {
                font-family: 'noto_regular';
                src: url('https://app.creately.com/diagram/assets/fonts/noto/noto-regular.woff') format('woff'),
                     url('https://app.creately.com/diagram/assets/fonts/noto/noto-regular.woff2') format('woff2');
                font-weight: normal;
                font-style: normal;
            }
        p {
            margin: 0;
        }
        </style></defs><defs><style>
            span{ display: inline-block; }
        </style></defs><g id="aaJMINo3s3J"><g transform="translate(-490 -540)"><path d="M 10,0 L 1349.9999999999918,0 L 1349.9999999999918,0 L 1349.9999999999918,0 A 10 10 0 0 1 1359.9999999999918 10 L 1359.9999999999918,870.0000000000059 L 1359.9999999999918,870.0000000000059 L 1359.9999999999918,870.0000000000059 A 10 10 0 0 1 1349.9999999999918 880.0000000000059 L 10,880.0000000000059 L 10,880.0000000000059 L 10,880.0000000000059 A 10 10 0 0 1 0 870.0000000000059 L 0,10 L 0,10 L 0,10.000000000000002 A 10 10 0 0 1 10 0 Z" fill="rgb(255,173,173)" stroke="#7e7e7e" stroke-width="2" stroke-linecap="round" stroke-linejoin="round"/></g></g><g id="9uTxZ4pGGmm"><g transform="translate(-430.0000000000001 -430)"><path d="M 10,0 L 400.00000000000006,0 L 400.00000000000006,0 L 400.00000000000006,0 A 10 10 0 0 1 410.00000000000006 10 L 410.00000000000006,190.00000000000009 L 410.00000000000006,190.00000000000009 L 410.00000000000006,190.00000000000009 A 10 10 0 0 1 400.00000000000006 200.00000000000009 L 10,200.00000000000009 L 10,200.00000000000009 L 10,200.00000000000009 A 10 10 0 0 1 0 190.00000000000009 L 0,10 L 0,10 L 0,10.000000000000002 A 10 10 0 0 1 10 0 Z" fill="rgb(255,214,165)" stroke="#7e7e7e" stroke-width="2" stroke-linecap="round" stroke-linejoin="round"/></g><g transform="translate(-225.00500000000008, -338.66999999999996) rotate(0, 0.005, 8.67)" width="0.01" height="17.34"><text text-decoration="none" x="0.005" fill="#4b4b4b" font-size="10pt" font-family="noto_regular"  y="15"></text></g></g><g id="qraWcjrLH2M"><g transform="translate(-400.0000000000001 -320)"><rect x="0" y="0" width="130" height="49.999999999999986" fill="rgb(202,255,191)" stroke="#7e7e7e" stroke-width="2" stroke-linecap="round" stroke-linejoin="round"/></g><g transform="translate(-373.0300000000001, -304) rotate(0, 38.03, 9)" width="76.06" height="18"><text text-decoration="none" x="1.5300000000000011" fill="#4b4b4b" font-size="10pt" font-family="noto_regular"  y="15">Sell&#160;</text><text text-decoration="none" x="25.53" fill="#4b4b4b" font-size="10pt" font-family="noto_regular"  y="15">Services</text><text text-decoration="none" x="74.53" fill="#4b4b4b" font-size="10pt" font-family="noto_regular"  y="15"></text></g></g><g id="89RBHCtPBIR"><g><path d="M -270,-295 L -180,-295" fill="none" stroke="#7E7E7E" stroke-width="2" stroke-linecap="round" stroke-linejoin="round"/></g></g><g id="aMuvxcIkYxd"><g transform="translate(-180.0000000000001 -320)"><rect x="0" y="0" width="130" height="49.999999999999986" fill="rgb(202,255,191)" stroke="#7e7e7e" stroke-width="2" stroke-linecap="round" stroke-linejoin="round" stroke-dasharray="0 0"/></g><g transform="translate(-168.1650000000001, -304) rotate(0, 53.165, 9)" width="106.33" height="18"><text text-decoration="none" x="4.164999999999999" fill="#4b4b4b" font-size="10pt" font-family="noto_regular"  y="15">Receive&#160;</text><text text-decoration="none" x="52.165" fill="#4b4b4b" font-size="10pt" font-family="noto_regular"  y="15">Payment</text><text text-decoration="none" x="102.16499999999999" fill="#4b4b4b" font-size="10pt" font-family="noto_regular"  y="15"></text></g></g><g id="mFPPeORyfFc"><g transform="translate(-280.0000000000001 -390)"><rect x="0" y="0" width="130" height="50" fill="rgba(255,255,255,0.01)" stroke="rgba(255,255,255,0.01)"/></g><g transform="translate(-270.0000000000001, -380) rotate(0, 0, 0)" width="108.19" height="22"><text text-decoration="none" x="0" fill="#4b4b4b" font-weight="bold" font-size="12pt" font-family="noto_regular"  y="15">Revenue&#160;</text><text text-decoration="none" x="67" fill="#4b4b4b" font-weight="bold" font-size="12pt" font-family="noto_regular"  y="15">Cycle</text><text text-decoration="none" x="106" fill="#4b4b4b" font-size="10pt" font-family="noto_regular"  y="15"></text></g></g><g id="vahbIqju6Ke"><g transform="translate(330.00000000000034 -469.9999999999999)"><path d="M 10,0 L 469.9999999999998,0 L 469.9999999999998,0 L 469.9999999999998,0 A 10 10 0 0 1 479.9999999999998 10 L 479.9999999999998,190.00000000000017 L 479.9999999999998,190.00000000000017 L 479.9999999999998,190.00000000000017 A 10 10 0 0 1 469.9999999999998 200.00000000000017 L 10,200.00000000000017 L 10,200.00000000000017 L 10,200.00000000000017 A 10 10 0 0 1 0 190.00000000000017 L 0,10 L 0,10 L 0,10.000000000000002 A 10 10 0 0 1 10 0 Z" fill="rgb(255,214,165)" stroke="#7e7e7e" stroke-width="2" stroke-linecap="round" stroke-linejoin="round"/></g><g transform="translate(569.9950000000002, -378.6699999999998) rotate(0, 0.005, 8.67)" width="0.01" height="17.34"><text text-decoration="none" x="0.005" fill="#4b4b4b" font-size="10pt" font-family="noto_regular"  y="15"></text></g></g><g id="Q9nbuN8wgnh"><g transform="translate(379.9999999999999 -360)"><rect x="0" y="0" width="149.9999999999999" height="60" fill="rgb(202,255,191)" stroke="#7e7e7e" stroke-width="2" stroke-linecap="round" stroke-linejoin="round"/></g><g transform="translate(414.5749999999998, -348.005) rotate(0, 40.425, 18.005)" width="80.85" height="36.01"><text text-decoration="none" x="4.424999999999997" fill="#4b4b4b" font-size="10pt" font-family="noto_regular"  y="12">Buy&#160;</text><text text-decoration="none" x="28.424999999999997" fill="#4b4b4b" font-size="10pt" font-family="noto_regular"  y="12">Goods&#160;</text><text text-decoration="none" x="68.425" fill="#4b4b4b" font-size="10pt" font-family="noto_regular"  y="12">&#x26;&#160;</text><text text-decoration="none" x="15.924999999999997" fill="#4b4b4b" font-size="10pt" font-family="noto_regular"  y="31">Services</text><text text-decoration="none" x="64.925" fill="#4b4b4b" font-size="10pt" font-family="noto_regular"  y="31"></text></g></g><g id="xDRuRZk05k3"><g transform="translate(600.0000000000001 -360)"><rect x="0" y="0" width="169.99999999999972" height="60" fill="rgb(202,255,191)" stroke="#7e7e7e" stroke-width="2" stroke-linecap="round" stroke-linejoin="round" stroke-dasharray="0 0"/></g><g transform="translate(657.305, -348.005) rotate(0, 27.695, 18.005)" width="55.39" height="36.01"><text text-decoration="none" x="10.195" fill="#4b4b4b" font-size="10pt" font-family="noto_regular"  y="12">Make&#160;</text><text text-decoration="none" x="45.195" fill="#4b4b4b" font-size="10pt" font-family="noto_regular"  y="12"></text><text text-decoration="none" x="2.6950000000000003" fill="#4b4b4b" font-size="10pt" font-family="noto_regular"  y="31">Payment</text><text text-decoration="none" x="52.695" fill="#4b4b4b" font-size="10pt" font-family="noto_regular"  y="31"></text></g></g><g id="QQmjkhk5kHP"><g><path d="M 530,-330 L 600,-330" fill="none" stroke="#7E7E7E" stroke-width="2" stroke-linecap="round" stroke-linejoin="round"/></g></g><g id="jt2LIm4becY"><g transform="translate(500.0000000000001 -430)"><rect x="0" y="0" width="160" height="50" fill="rgba(255,255,255,0.01)" stroke="rgba(255,255,255,0.01)"/></g><g transform="translate(510.0000000000001, -420) rotate(0, 0, 0)" width="134.64" height="22"><text text-decoration="none" x="0" fill="#4b4b4b" font-weight="bold" font-size="12pt" font-family="noto_regular"  y="15">Expenditure&#160;</text><text text-decoration="none" x="90" fill="#4b4b4b" font-weight="bold" font-size="12pt" font-family="noto_regular"  y="15">Cycle</text><text text-decoration="none" x="129" fill="#4b4b4b" font-size="10pt" font-family="noto_regular"  y="15"></text></g></g><g id="Yji17saFTdZ"><g transform="translate(-430.0000000000001 -169.99999999999994)"><path d="M 10,0 L 400.00000000000006,0 L 400.00000000000006,0 L 400.00000000000006,0 A 10 10 0 0 1 410.00000000000006 10 L 410.00000000000006,389.9999999996144 L 410.00000000000006,389.9999999996144 L 410.00000000000006,389.9999999996144 A 10 10 0 0 1 400.00000000000006 399.9999999996144 L 10,399.9999999996144 L 10,399.9999999996144 L 10,399.9999999996144 A 10 10 0 0 1 0 389.9999999996144 L 0,10 L 0,10 L 0,10.000000000000002 A 10 10 0 0 1 10 0 Z" fill="rgb(255,214,165)" stroke="#7e7e7e" stroke-width="2" stroke-linecap="round" stroke-linejoin="round"/></g><g transform="translate(-225.00500000000005, 21.329999999807242) rotate(0, 0.005, 8.67)" width="0.01" height="17.34"><text text-decoration="none" x="0.005" fill="#4b4b4b" font-size="10pt" font-family="noto_regular"  y="15"></text></g></g><g id="ywCKNWRjbgQ"><g transform="translate(-400.0000000000001 -60)"><rect x="0" y="0" width="139.9999999999997" height="60" fill="rgb(202,255,191)" stroke="#7e7e7e" stroke-width="2" stroke-linecap="round" stroke-linejoin="round"/></g><g transform="translate(-374.33000000000027, -48.004999999999995) rotate(0, 44.33, 18.005)" width="88.66" height="36.01"><text text-decoration="none" x="4.329999999999998" fill="#4b4b4b" font-size="10pt" font-family="noto_regular"  y="12">Use&#160;</text><text text-decoration="none" x="29.33" fill="#4b4b4b" font-size="10pt" font-family="noto_regular"  y="12">employee&#160;</text><text text-decoration="none" x="31.83" fill="#4b4b4b" font-size="10pt" font-family="noto_regular"  y="31">time</text><text text-decoration="none" x="56.83" fill="#4b4b4b" font-size="10pt" font-family="noto_regular"  y="31"></text></g></g><g id="kZKsFCJqOWW"><g transform="translate(-190.00000000000034 40)"><rect x="0" y="0" width="130" height="60" fill="rgb(202,255,191)" stroke="#7e7e7e" stroke-width="2" stroke-linecap="round" stroke-linejoin="round" stroke-dasharray="0 0"/></g><g transform="translate(-180.31500000000034, 61) rotate(0, 55.315, 9)" width="110.63" height="18"><text text-decoration="none" x="3.8149999999999977" fill="#4b4b4b" font-size="10pt" font-family="noto_regular"  y="15">Services&#160;</text><text text-decoration="none" x="55.815" fill="#4b4b4b" font-size="10pt" font-family="noto_regular"  y="15">Available</text><text text-decoration="none" x="106.815" fill="#4b4b4b" font-size="10pt" font-family="noto_regular"  y="15"></text></g></g><g id="Zxh94Gc2fGp"><g transform="translate(-280.0000000000001 -129.99999999999994)"><rect x="0" y="0" width="150" height="50" fill="rgba(255,255,255,0.01)" stroke="rgba(255,255,255,0.01)"/></g><g transform="translate(-270.0000000000001, -119.99999999999994) rotate(0, 0, 0)" width="126.11" height="22"><text text-decoration="none" x="0" fill="#4b4b4b" font-weight="bold" font-size="12pt" font-family="noto_regular"  y="15">Production&#160;</text><text text-decoration="none" x="82" fill="#4b4b4b" font-weight="bold" font-size="12pt" font-family="noto_regular"  y="15">Cycle</text><text text-decoration="none" x="121" fill="#4b4b4b" font-size="10pt" font-family="noto_regular"  y="15"></text></g></g><g id="jQuBG0exlqz"><g transform="translate(-400.0000000000001 40)"><rect x="0" y="0" width="139.9999999999997" height="59.999999999999986" fill="rgb(202,255,191)" stroke="#7e7e7e" stroke-width="2" stroke-linecap="round" stroke-linejoin="round"/></g><g transform="translate(-352.2450000000003, 61) rotate(0, 22.245, 9)" width="44.49" height="18"><text text-decoration="none" x="2.745000000000001" fill="#4b4b4b" font-size="10pt" font-family="noto_regular"  y="15">Labour</text><text text-decoration="none" x="41.745000000000005" fill="#4b4b4b" font-size="10pt" font-family="noto_regular"  y="15"></text></g></g><g id="nE8toU16hmK"><g transform="translate(-400.0000000000001 149.9999999999999)"><rect x="0" y="0" width="140.00000000000009" height="50" fill="rgb(202,255,191)" stroke="#7e7e7e" stroke-width="2" stroke-linecap="round" stroke-linejoin="round"/></g><g transform="translate(-373.47, 165.9999999999999) rotate(0, 43.47, 9)" width="86.94" height="18"><text text-decoration="none" x="2.969999999999999" fill="#4b4b4b" font-size="10pt" font-family="noto_regular"  y="15">Use&#160;</text><text text-decoration="none" x="27.97" fill="#4b4b4b" font-size="10pt" font-family="noto_regular"  y="15">Machines</text><text text-decoration="none" x="83.97" fill="#4b4b4b" font-size="10pt" font-family="noto_regular"  y="15"></text></g></g><g id="8ZbFgq3Qu9Q"><g><path d="M -260,-30 L -135.00000000000034,-30 Q -125.00000000000034,-30 -125.0000000000003,-20 L -125,40" fill="none" stroke="#7E7E7E" stroke-width="2" stroke-linecap="round" stroke-linejoin="round"/></g></g><g id="zHjLBoFJNix"><g><path d="M -260,175 L -135.00000000000034,174.9999999999999 Q -125.00000000000034,174.9999999999999 -125.0000000000003,164.9999999999999 L -125,100" fill="none" stroke="#7E7E7E" stroke-width="2" stroke-linecap="round" stroke-linejoin="round"/></g></g><g id="jYkmWyQrHBo"><g><path d="M -260,70 L -190,70" fill="none" stroke="#7E7E7E" stroke-width="2" stroke-linecap="round" stroke-linejoin="round"/></g></g><g id="FRLs7bwovko"><g transform="translate(330.0000000000001 -210.00000000000045)"><path d="M 10,0 L 469.9999999999998,0 L 469.9999999999998,0 L 469.9999999999998,0 A 10 10 0 0 1 479.9999999999998 10 L 479.9999999999998,210.00000000000045 L 479.9999999999998,210.00000000000045 L 479.9999999999998,210.00000000000045 A 10 10 0 0 1 469.9999999999998 220.00000000000045 L 10,220.00000000000045 L 10,220.00000000000045 L 10,220.00000000000045 A 10 10 0 0 1 0 210.00000000000045 L 0,10 L 0,10 L 0,10.000000000000002 A 10 10 0 0 1 10 0 Z" fill="rgb(255,214,165)" stroke="#7e7e7e" stroke-width="2" stroke-linecap="round" stroke-linejoin="round"/></g><g transform="translate(569.995, -108.67000000000023) rotate(0, 0.005, 8.67)" width="0.01" height="17.34"><text text-decoration="none" x="0.005" fill="#4b4b4b" font-size="10pt" font-family="noto_regular"  y="15"></text></g></g><g id="QPbz83bYzaq"><g transform="translate(379.9999999999999 -100.00000000000006)"><rect x="0" y="0" width="160.0000000000054" height="60.000000000003" fill="rgb(202,255,191)" stroke="#7e7e7e" stroke-width="2" stroke-linecap="round" stroke-linejoin="round"/></g><g transform="translate(412.13000000000255, -78.99999999999855) rotate(0, 47.87, 9)" width="95.74" height="18"><text text-decoration="none" x="4.369999999999997" fill="#4b4b4b" font-size="10pt" font-family="noto_regular"  y="15">Employee&#160;</text><text text-decoration="none" x="62.37" fill="#4b4b4b" font-size="10pt" font-family="noto_regular"  y="15">Time</text><text text-decoration="none" x="91.37" fill="#4b4b4b" font-size="10pt" font-family="noto_regular"  y="15"></text></g></g><g id="8lapdul7Ml7"><g transform="translate(599.9999999999992 -100.00000000000006)"><rect x="0" y="0" width="170.0000000001287" height="59.99999999999993" fill="rgb(202,255,191)" stroke="#7e7e7e" stroke-width="2" stroke-linecap="round" stroke-linejoin="round" stroke-dasharray="0 0"/></g><g transform="translate(638.1850000000636, -79.00000000000009) rotate(0, 46.815, 9)" width="93.63" height="18"><text text-decoration="none" x="3.8149999999999977" fill="#4b4b4b" font-size="10pt" font-family="noto_regular"  y="15">Pay&#160;</text><text text-decoration="none" x="27.814999999999998" fill="#4b4b4b" font-size="10pt" font-family="noto_regular"  y="15">Employees</text><text text-decoration="none" x="89.815" fill="#4b4b4b" font-size="10pt" font-family="noto_regular"  y="15"></text></g></g><g id="BjWTtGENZbT"><g><path d="M 540,-70 L 560.0000000000023,-69.99999999999903 Q 560.000000000005,-69.99999999999903 570,-70 Q 580,-70.00000000000006 580.0000000000023,-70.00000000000006 L 600,-70" fill="none" stroke="#7E7E7E" stroke-width="2" stroke-linecap="round" stroke-linejoin="round"/></g></g><g id="4saY5yGQUe0"><g transform="translate(510.0000000000001 -170.0000000000001)"><rect x="0" y="0" width="150" height="50" fill="rgba(255,255,255,0.01)" stroke="rgba(255,255,255,0.01)"/></g><g transform="translate(520.0000000000001, -160.0000000000001) rotate(0, 0, 0)" width="123.29" height="22"><text text-decoration="none" x="0" fill="#4b4b4b" font-weight="bold" font-size="12pt" font-family="noto_regular"  y="15">HR/Payroll&#160;</text><text text-decoration="none" x="81" fill="#4b4b4b" font-weight="bold" font-size="12pt" font-family="noto_regular"  y="15">Cycle</text><text text-decoration="none" x="120" fill="#4b4b4b" font-size="10pt" font-family="noto_regular"  y="15"></text></g></g><g id="Mq2bhN0Ozn5"><g transform="translate(329.9999999999999 39.999999999999886)"><path d="M 10,0 L 469.9999999999998,0 L 469.9999999999998,0 L 469.9999999999998,0 A 10 10 0 0 1 479.9999999999998 10 L 479.9999999999998,219.99999999999977 L 479.9999999999998,219.99999999999977 L 479.9999999999998,219.99999999999977 A 10 10 0 0 1 469.9999999999998 229.99999999999977 L 10,229.99999999999977 L 10,229.99999999999977 L 10,229.99999999999977 A 10 10 0 0 1 0 219.99999999999977 L 0,10 L 0,10 L 0,10.000000000000002 A 10 10 0 0 1 10 0 Z" fill="rgb(255,214,165)" stroke="#7e7e7e" stroke-width="2" stroke-linecap="round" stroke-linejoin="round"/></g><g transform="translate(569.9949999999998, 146.32999999999979) rotate(0, 0.005, 8.67)" width="0.01" height="17.34"><text text-decoration="none" x="0.005" fill="#4b4b4b" font-size="10pt" font-family="noto_regular"  y="15"></text></g></g><g id="EDZumd7PahK"><g transform="translate(559.9999999999999 119.99999999999989)"><rect x="0" y="0" width="220.0000000000005" height="120.00000000000273" fill="rgb(202,255,191)" stroke="#7e7e7e" stroke-width="2" stroke-linecap="round" stroke-linejoin="round" stroke-dasharray="0 0"/></g><g transform="translate(581.9700000000003, 161.99500000000126) rotate(0, 88.03, 18.005)" width="176.06" height="36.01"><text text-decoration="none" x="8.530000000000001" fill="#4b4b4b" font-size="10pt" font-family="noto_regular"  y="12">Produce&#160;</text><text text-decoration="none" x="58.53" fill="#4b4b4b" font-size="10pt" font-family="noto_regular"  y="12">Reports&#160;</text><text text-decoration="none" x="105.53" fill="#4b4b4b" font-size="10pt" font-family="noto_regular"  y="12">&#x26;&#160;</text><text text-decoration="none" x="116.53" fill="#4b4b4b" font-size="10pt" font-family="noto_regular"  y="12">Financial&#160;</text><text text-decoration="none" x="55.03" fill="#4b4b4b" font-size="10pt" font-family="noto_regular"  y="31">Statements</text><text text-decoration="none" x="121.03" fill="#4b4b4b" font-size="10pt" font-family="noto_regular"  y="31"></text></g></g><g id="oBhKMu1CfcH"><g transform="translate(449.9999999999999 59.999999999999886)"><rect x="0" y="0" width="290" height="50" fill="rgba(255,255,255,0.01)" stroke="rgba(255,255,255,0.01)"/></g><g transform="translate(459.9999999999999, 69.99999999999989) rotate(0, 0, 0)" width="269.49" height="22"><text text-decoration="none" x="0" fill="#4b4b4b" font-weight="bold" font-size="12pt" font-family="noto_regular"  y="15">General&#160;</text><text text-decoration="none" x="61" fill="#4b4b4b" font-weight="bold" font-size="12pt" font-family="noto_regular"  y="15">Ledger&#160;</text><text text-decoration="none" x="116" fill="#4b4b4b" font-weight="bold" font-size="12pt" font-family="noto_regular"  y="15">&#x26;&#160;</text><text text-decoration="none" x="131" fill="#4b4b4b" font-weight="bold" font-size="12pt" font-family="noto_regular"  y="15">Reporting&#160;</text><text text-decoration="none" x="205" fill="#4b4b4b" font-weight="bold" font-size="12pt" font-family="noto_regular"  y="15">System</text><text text-decoration="none" x="259" fill="#4b4b4b" font-size="10pt" font-family="noto_regular"  y="15"></text></g></g><g id="Kmgs7ASSoGe"><g transform="translate(410 119.99999999999989)"><path d="M 0,0 L 0,54 Q 25,66 50,54 Q 75,35 100,54 L 100,0 L 0,0 Z" fill="rgb(255,255,255)" stroke="#f9b367" stroke-width="2" stroke-linecap="round" stroke-linejoin="round"/></g><g transform="translate(459.995, 135.3299999999999) rotate(0, 0.005, 8.67)" width="0.01" height="17.34"><text text-decoration="none" x="0.005" fill="#4b4b4b" font-size="10pt" font-family="noto_regular"  y="15"></text></g></g><g id="VXHJFRS90vR"><g transform="translate(390 190)"><path d="M 120,0 L 120,60 L 0,60 L 0,30 L 120,0 Z" fill="rgb(255,255,255)" stroke="#24afaf" stroke-width="2" stroke-linecap="round" stroke-linejoin="round"/></g><g transform="translate(449.995, 223.33) rotate(0, 0.005, 8.67)" width="0.01" height="17.34"><text text-decoration="none" x="0.005" fill="#4b4b4b" font-size="10pt" font-family="noto_regular"  y="15"></text></g></g><g id="IZGHymJsIdK"><g><path d="M 560,180 L 545,180.00000000000074 Q 535,180.00000000000125 535,170.00000000000125 L 535,165 L 535,159.9999999999999 Q 535,149.9999999999999 525,149.99999999999994 L 510,150" fill="none" stroke="#7E7E7E" stroke-width="2" stroke-linecap="round" stroke-linejoin="round"/><path d="M 510,150 L 518.695652173913,155.75 L 518.695652173913,144.25 Z" fill="rgb(126,126,126)" stroke="#7E7E7E" stroke-width="2" stroke-linecap="round" stroke-linejoin="round"/></g></g><g id="KIstWzz5w0D"><g><path d="M 510,220 L 525,220 Q 535,220 535,210 L 535,200 L 535,190.00000000000125 Q 535,180.00000000000125 545,180.00000000000074 L 560,180" fill="none" stroke="#7E7E7E" stroke-width="2" stroke-linecap="round" stroke-linejoin="round"/><path d="M 510,220 L 518.695652173913,225.75 L 518.695652173913,214.25 Z" fill="rgb(126,126,126)" stroke="#7E7E7E" stroke-width="2" stroke-linecap="round" stroke-linejoin="round"/></g></g><g id="BVGRTrHqM7Z"><g><path d="M 80,-100 L 39.99999999999997,-100.00000000000007 Q 29.999999999999975,-100.00000000000009 29.99999999999998,-110.00000000000009 L 30,-215 L 29.99999999999998,-319.99999999999994 Q 29.999999999999975,-329.99999999999994 19.999999999999975,-329.99999999999994 L -20,-330" fill="none" stroke="#7E7E7E" stroke-width="2" stroke-linecap="round" stroke-linejoin="round"/><path d="M 80,-100 L 71.30434782608695,-105.75 L 71.30434782608695,-94.25 Z" fill="rgb(126,126,126)" stroke="#7E7E7E" stroke-width="2" stroke-linecap="round" stroke-linejoin="round"/><path d="M -20,-330 L -11.304347826086955,-324.25 L -11.304347826086955,-335.75 Z" fill="rgb(126,126,126)" stroke="#7E7E7E" stroke-width="2" stroke-linecap="round" stroke-linejoin="round"/></g></g><g id="BQ48XPi6d8k"><g><path d="M 170,-150 L 170.00000000002018,-359.9999999999998 Q 170.00000000002115,-369.9999999999998 180.00000000002115,-369.9999999999998 L 330,-370" fill="none" stroke="#7E7E7E" stroke-width="2" stroke-linecap="round" stroke-linejoin="round"/><path d="M 170,-150 L 175.75,-158.69565217391303 L 164.25,-158.69565217391303 Z" fill="rgb(126,126,126)" stroke="#7E7E7E" stroke-width="2" stroke-linecap="round" stroke-linejoin="round"/><path d="M 330,-370 L 321.30434782608694,-375.75 L 321.30434782608694,-364.25 Z" fill="rgb(126,126,126)" stroke="#7E7E7E" stroke-width="2" stroke-linecap="round" stroke-linejoin="round"/></g></g><g id="CqJdjAwZ2no"><g><path d="M 170,-50 L 170.00000000002012,144.99999999999977 Q 170.00000000002115,154.99999999999977 180.00000000002115,154.9999999999998 L 330,155" fill="none" stroke="#7E7E7E" stroke-width="2" stroke-linecap="round" stroke-linejoin="round"/><path d="M 170,-50 L 164.25,-41.30434782608695 L 175.75,-41.30434782608695 Z" fill="rgb(126,126,126)" stroke="#7E7E7E" stroke-width="2" stroke-linecap="round" stroke-linejoin="round"/><path d="M 330,155 L 321.30434782608694,149.25 L 321.30434782608694,160.75 Z" fill="rgb(126,126,126)" stroke="#7E7E7E" stroke-width="2" stroke-linecap="round" stroke-linejoin="round"/></g></g><g id="ASDtLyRSd8f"><g><path d="M 260,-100 L 285.0000000000212,-100.00000000000006 Q 285.0000000000424,-100.00000000000006 295,-100 Q 305,-100.00000000000016 305.0000000000212,-100.00000000000016 L 330,-100" fill="none" stroke="#7E7E7E" stroke-width="2" stroke-linecap="round" stroke-linejoin="round"/><path d="M 260,-100 L 268.69565217391306,-94.25 L 268.69565217391306,-105.75 Z" fill="rgb(126,126,126)" stroke="#7E7E7E" stroke-width="2" stroke-linecap="round" stroke-linejoin="round"/><path d="M 330,-100 L 321.30434782608694,-105.75 L 321.30434782608694,-94.25 Z" fill="rgb(126,126,126)" stroke="#7E7E7E" stroke-width="2" stroke-linecap="round" stroke-linejoin="round"/></g></g><g id="oYHdbzQULul"><g transform="translate(80 -150)"><path d="M 10,0 Q -10,49.99999999999992 10,99.99999999999984 L 170.0000000000423,99.99999999999984 Q 190.0000000000423,49.99999999999992 170.0000000000423,0 L 170.0000000000423,0 Z M 170.0000000000423,0 Q 150.0000000000423,49.99999999999992 170.0000000000423,99.99999999999984" fill="rgb(255,198,255)" stroke="#f9b367" stroke-width="2" stroke-linecap="round" stroke-linejoin="round"/></g><g transform="translate(84.17500000001776, -109.00000000000009) rotate(0, 71.425, 9)" width="142.85" height="18"><text text-decoration="none" x="6.424999999999997" fill="#656565" font-size="10pt" font-family="noto_regular"  y="15">Integrated&#160;</text><text text-decoration="none" x="67.425" fill="#656565" font-size="10pt" font-family="noto_regular"  y="15">ERP&#160;</text><text text-decoration="none" x="93.425" fill="#656565" font-size="10pt" font-family="noto_regular"  y="15">System</text><text text-decoration="none" x="136.425" fill="#4b4b4b" font-size="10pt" font-family="noto_regular"  y="15"></text></g></g><g id="7v3TrNsT8CX"><g><path d="M 91,-50 L 90.72437469477056,20.000077518437116 Q 90.68500000000009,29.999999999807244 80.68500000000009,29.99999999982466 L -20,30" fill="none" stroke="#7E7E7E" stroke-width="2" stroke-linecap="round" stroke-linejoin="round"/><path d="M 91,-50 L 85.25,-41.30434782608695 L 96.75,-41.30434782608695 Z" fill="rgb(126,126,126)" stroke="#7E7E7E" stroke-width="2" stroke-linecap="round" stroke-linejoin="round"/><path d="M -20,30 L -11.304347826086955,35.75 L -11.304347826086955,24.25 Z" fill="rgb(126,126,126)" stroke="#7E7E7E" stroke-width="2" stroke-linecap="round" stroke-linejoin="round"/></g></g><g id="LZg4hezI5xx"><g transform="translate(-459.9999999999998 -520)"><rect x="0" y="0" width="760" height="60" fill="rgba(255,255,255,0.01)" stroke="rgba(255,255,255,0.01)"/></g><g transform="translate(-449.9999999999998, -510) rotate(0, 0, 0)" width="734.26" height="36.67"><text text-decoration="none" x="0" fill="#4b4b4b" font-weight="bold" font-size="20pt" font-family="noto_regular"  y="25">The&#160;</text><text text-decoration="none" x="54" fill="#4b4b4b" font-weight="bold" font-size="20pt" font-family="noto_regular"  y="25">Integrated&#160;</text><text text-decoration="none" x="186" fill="#4b4b4b" font-weight="bold" font-size="20pt" font-family="noto_regular"  y="25">Enterprise&#160;</text><text text-decoration="none" x="318" fill="#4b4b4b" font-weight="bold" font-size="20pt" font-family="noto_regular"  y="25">Resource&#160;</text><text text-decoration="none" x="440" fill="#4b4b4b" font-weight="bold" font-size="20pt" font-family="noto_regular"  y="25">Planning&#160;</text><text text-decoration="none" x="552" fill="#4b4b4b" font-weight="bold" font-size="20pt" font-family="noto_regular"  y="25">(ERP)&#160;</text><text text-decoration="none" x="627" fill="#4b4b4b" font-weight="bold" font-size="20pt" font-family="noto_regular"  y="25">System</text><text text-decoration="none" x="719" fill="#4b4b4b" font-size="10pt" font-family="noto_regular"  y="25"></text></g></g></svg>